<svg width="50" height="32" viewBox="0 0 50 32" fill="none" xmlns="http://www.w3.org/2000/svg">
  <rect width="50" height="32" rx="4" fill="white" stroke="#e5e7eb"/>
  <path d="M17.8 11.1C17.4 11.7 16.7 12.0 16.0 12.0C15.9 11.3 16.3 10.6 16.7 10.1C17.1 9.6 17.8 9.3 18.3 9.2C18.4 10.0 18.1 10.6 17.8 11.1ZM18.3 12.1C17.3 12.1 16.5 12.7 16.0 12.7C15.5 12.7 14.8 12.2 14.0 12.2C12.9 12.2 11.9 12.8 11.4 13.7C10.3 15.6 11.1 18.5 12.2 20.0C12.7 20.8 13.3 21.6 14.1 21.6C14.9 21.6 15.2 21.1 16.2 21.1C17.2 21.1 17.4 21.6 18.3 21.6C19.1 21.6 19.7 20.8 20.2 20.0C20.8 19.2 21.0 18.4 21.0 18.4C21.0 18.4 18.7 17.6 18.7 15.0C18.7 12.8 20.5 11.8 20.5 11.7C19.6 10.4 18.2 10.2 17.8 10.2V11.1H18.3V12.1Z" fill="#000000"/>
  <path d="M26.0 10V21.5H28.1V17.5H31.2C33.7 17.5 35.4 15.9 35.4 13.5C35.4 11.1 33.8 9.5 31.3 9.5H26.0V10ZM28.1 11.6H30.7C32.4 11.6 33.2 12.5 33.2 13.5C33.2 14.5 32.4 15.3 30.7 15.3H28.1V11.6Z" fill="#000000"/>
  <path d="M36.7 19.0C36.7 20.6 37.9 21.6 39.8 21.6C41.7 21.6 42.9 20.6 42.9 19.0C42.9 17.3 41.7 16.3 39.8 16.3C37.9 16.3 36.7 17.3 36.7 19.0ZM40.7 19.0C40.7 19.9 40.2 20.4 39.8 20.4C39.3 20.4 38.8 19.9 38.8 19.0C38.8 18.0 39.3 17.4 39.8 17.4C40.2 17.4 40.7 18.0 40.7 19.0Z" fill="#000000"/>
</svg>