<svg width="50" height="32" viewBox="0 0 50 32" fill="none" xmlns="http://www.w3.org/2000/svg">
  <rect width="50" height="32" rx="4" fill="white" stroke="#e5e7eb"/>
  <path d="M20.5 10L18.5 22H16L18 10H20.5ZM30.5 10.2C30 10.1 29.2 10 28.2 10C25.8 10 24.1 11.3 24.1 13.1C24.1 14.5 25.4 15.2 26.4 15.7C27.4 16.2 27.7 16.5 27.7 17C27.7 17.8 26.7 18.2 25.8 18.2C24.6 18.2 23.9 18 23 17.6L22.6 17.4L22.2 19.8C22.9 20.1 24.1 20.4 25.4 20.4C28 20.4 29.6 19.1 29.6 17.2C29.6 16.1 28.8 15.3 27.1 14.6C26.2 14.1 25.7 13.8 25.7 13.3C25.7 12.9 26.2 12.4 27.4 12.4C28.3 12.4 28.9 12.6 29.4 12.8L29.6 12.9L30 10.6C29.4 10.4 28.6 10.2 27.6 10.2M36.8 10H34.9C34.3 10 33.9 10.2 33.6 10.8L29.8 22H32.4L32.9 20.6H36.1L36.4 22H38.5L36.8 10ZM34.5 13.4L35.4 18.2H33.6L34.5 13.4ZM13.5 10L11.1 18.7L10.8 17.2C10.3 15.5 8.8 13.7 7.1 12.8L9.3 22H12L16.1 10H13.5Z" fill="#1A1F71"/>
</svg>